<svg width="31" height="30" viewBox="0 0 31 30" fill="none" xmlns="http://www.w3.org/2000/svg">
<g clip-path="url(#clip0_23_975)">
<path d="M5.1048 7.76843C5.89226 7.76843 6.64747 8.08708 7.20428 8.6543C7.7611 9.22151 8.07391 9.99083 8.07391 10.793V19.0877C8.07391 19.4846 7.99708 19.8776 7.84778 20.2441C7.69848 20.6107 7.47966 20.9436 7.20386 21.2239C6.92806 21.5042 6.6007 21.7264 6.24051 21.8776C5.88033 22.0288 5.49438 22.1062 5.1048 22.1053C4.71554 22.1062 4.32994 22.0288 3.97013 21.8775C3.61033 21.7262 3.28342 21.5039 3.00817 21.2235C2.73293 20.9431 2.51475 20.6101 2.36621 20.2436C2.21767 19.8771 2.14168 19.4843 2.14259 19.0877V10.793C2.14168 10.3961 2.21762 10.003 2.36608 9.63609C2.51454 9.26917 2.7326 8.93568 3.00775 8.65473C3.28291 8.37378 3.60977 8.15089 3.96961 7.9988C4.32945 7.84672 4.71521 7.76843 5.1048 7.76843Z" fill="#E83C77"/>
<path d="M5.10465 0.00699065C5.88852 0.010694 6.63915 0.330022 7.1928 0.89532C7.74644 1.46062 8.05817 2.226 8.05998 3.02453C8.05816 3.82547 7.74454 4.59298 7.18792 5.15868C6.6313 5.72438 5.87714 6.04209 5.09088 6.04208C4.30525 6.04208 3.55179 5.72415 2.99627 5.15825C2.44074 4.59235 2.12866 3.82483 2.12866 3.02453C2.12866 2.62707 2.20571 2.23355 2.35544 1.86653C2.50517 1.49951 2.7246 1.16622 3.00113 0.885833C3.27765 0.605444 3.60584 0.383467 3.96683 0.232649C4.32781 0.0818315 4.71448 0.00514203 5.10465 0.00699065Z" fill="#E83C77"/>
<path d="M2.96223 23.9579H28.0378C28.8252 23.9579 29.5805 24.2765 30.1373 24.8438C30.6941 25.411 31.0069 26.1803 31.0069 26.9824C31.0051 27.7834 30.6915 28.5509 30.1348 29.1166C29.5782 29.6823 28.8241 30 28.0378 30H2.96223C2.17716 29.9981 1.42476 29.6796 0.869626 29.1141C0.314495 28.5486 0.00181941 27.7822 0 26.9824C-2.11633e-06 26.1815 0.311881 25.4133 0.867208 24.8462C1.42254 24.2792 2.17597 23.9597 2.96223 23.9579Z" fill="#E83C77"/>
<path d="M28.8575 12.821V19.1017C28.8207 19.8778 28.4922 20.6097 27.9401 21.1457C27.3879 21.6817 26.6545 21.9807 25.8918 21.9807C25.1291 21.9807 24.3956 21.6817 23.8435 21.1457C23.2913 20.6097 22.9628 19.8778 22.9261 19.1017V11.5719C22.9261 10.7716 22.614 10.0041 22.0585 9.4382C21.503 8.8723 20.7495 8.55437 19.9639 8.55437C19.1783 8.55437 18.4248 8.8723 17.8693 9.4382C17.3138 10.0041 17.0017 10.7716 17.0017 11.5719V19.1017C16.965 19.8778 16.6365 20.6097 16.0843 21.1457C15.5322 21.6817 14.7987 21.9807 14.036 21.9807C13.2733 21.9807 12.5399 21.6817 11.9877 21.1457C11.4356 20.6097 11.1071 19.8778 11.0703 19.1017V12.821V11.7193C11.0457 10.5304 11.2512 9.34824 11.6751 8.24028C12.099 7.13233 12.7331 6.12031 13.5411 5.26205C14.3491 4.40378 15.3151 3.71608 16.3841 3.23825C17.453 2.76041 18.6039 2.5018 19.771 2.47717H20.143C21.3107 2.49998 22.4625 2.75704 23.5326 3.23362C24.6027 3.71021 25.57 4.39698 26.3794 5.25468C27.1887 6.11238 27.8242 7.12417 28.2494 8.23221C28.6746 9.34025 28.8812 10.5228 28.8575 11.7123V12.814V12.821Z" fill="#E83C77"/>
</g>
<defs>
<clipPath id="clip0_23_975">
<rect width="31" height="30" fill="white"/>
</clipPath>
</defs>
</svg>
