<svg width="24" height="24" viewBox="0 0 24 24" fill="none" xmlns="http://www.w3.org/2000/svg">
<path opacity="0.35" d="M16 21H8C6.895 21 6 20.105 6 19V5C6 3.895 6.895 3 8 3H16C17.105 3 18 3.895 18 5V19C18 20.105 17.105 21 16 21Z" fill="#D2D6DB"/>
<path d="M20 4H17.723C17.894 4.295 18 4.634 18 5V19C18 19.366 17.894 19.705 17.723 20H20C21.105 20 22 19.105 22 18V6C22 4.895 21.105 4 20 4Z" fill="#D2D6DB"/>
<path d="M4 20H6.277C6.106 19.705 6 19.366 6 19V5C6 4.634 6.106 4.295 6.277 4H4C2.895 4 2 4.895 2 6V18C2 19.105 2.895 20 4 20Z" fill="#D2D6DB"/>
<path d="M15 7H9C8.448 7 8 6.552 8 6C8 5.448 8.448 5 9 5H15C15.552 5 16 5.448 16 6C16 6.552 15.552 7 15 7Z" fill="#D2D6DB"/>
<path d="M15 11H12C11.448 11 11 10.552 11 10C11 9.448 11.448 9 12 9H15C15.552 9 16 9.448 16 10C16 10.552 15.552 11 15 11Z" fill="#D2D6DB"/>
<path d="M9 11C9.55228 11 10 10.5523 10 10C10 9.44772 9.55228 9 9 9C8.44772 9 8 9.44772 8 10C8 10.5523 8.44772 11 9 11Z" fill="#D2D6DB"/>
<path d="M15 15H12C11.448 15 11 14.552 11 14C11 13.448 11.448 13 12 13H15C15.552 13 16 13.448 16 14C16 14.552 15.552 15 15 15Z" fill="#D2D6DB"/>
<path d="M15 19H12C11.448 19 11 18.552 11 18C11 17.448 11.448 17 12 17H15C15.552 17 16 17.448 16 18C16 18.552 15.552 19 15 19Z" fill="#D2D6DB"/>
<path d="M9 15C9.55228 15 10 14.5523 10 14C10 13.4477 9.55228 13 9 13C8.44772 13 8 13.4477 8 14C8 14.5523 8.44772 15 9 15Z" fill="#D2D6DB"/>
<path d="M9 19C9.55228 19 10 18.5523 10 18C10 17.4477 9.55228 17 9 17C8.44772 17 8 17.4477 8 18C8 18.5523 8.44772 19 9 19Z" fill="#D2D6DB"/>
</svg>
