<svg width="24" height="24" viewBox="0 0 24 24" fill="none" xmlns="http://www.w3.org/2000/svg">
<path d="M1.69504 18C1.07804 18 0.768045 18.81 1.20204 19.287L4.28705 22.677C4.68005 23.108 5.32004 23.108 5.71305 22.677L8.79805 19.287C9.23205 18.81 8.92105 18 8.30505 18H1.69504Z" fill="#E83C77"/>
<path d="M13 9H11C7.686 9 5 11.686 5 15V20" stroke="#E83C77" stroke-width="4" stroke-miterlimit="10" stroke-linecap="round" stroke-linejoin="round"/>
<path opacity="0.35" d="M22.798 4.71301L19.713 1.32301C19.32 0.892006 18.68 0.892006 18.287 1.32301L15.202 4.71301C14.768 5.19001 15.079 6.00001 15.695 6.00001H17V9.00001C17 11.206 15.206 13 13 13H11C9.896 13 9 13.896 9 15C9 16.104 9.896 17 11 17H13C17.411 17 21 13.411 21 9.00001V6.00001H22.305C22.921 6.00001 23.232 5.19001 22.798 4.71301Z" fill="#E83C77"/>
</svg>
